PathFileType	4	(X/Y/Z)	Running2.trc
DataRate	CameraRate	NumFrames	NumMarkers	Units	OrigDataRate	OrigDataStartFrame	OrigNumFrames
100	100	91	2	mm	100	1	6000
Frame#	Time	mal_lat_left			mal_lat_right		
		X	Y	Z	X	Y	Z	
1	0.0	507.421173095703	423.270904541016	258.817779541016	1049.2412109375	218.00862121582	107.948524475098
2	0.005	504.659759521484	423.516876220703	264.204620361328	1052.00573730469	218.709533691406	105.34171295166
3	0.01	502.387542724609	423.722503662109	269.609680175781	1053.77014160156	219.357086181641	102.491546630859
4	0.015	500.514923095703	424.132202148438	274.996307373047	1054.26550292969	219.747451782227	99.6109924316406
5	0.02	499.240783691406	424.379455566406	280.231048583984	1053.85852050781	220.216995239258	96.4170455932617
6	0.025	498.404479980469	424.639953613281	285.718078613281	1052.61096191406	220.505020141602	93.2595291137695
7	0.03	498.240417480469	424.845550537109	290.734649658203	1050.42016601562	220.556915283203	90.6410217285156
8	0.035	498.666656494141	424.953002929688	295.692474365234	1047.35803222656	220.804214477539	88.8086090087891
9	0.04	499.599731445312	425.054351806641	300.447784423828	1042.47814941406	221.598159790039	86.4836120605469
10	0.045	501.198394775391	424.917236328125	304.81884765625	1035.25756835938	222.594161987305	84.6686630249023
11	0.05	503.469909667969	424.908172607422	309.227844238281	1026.18859863281	223.903259277344	83.7245559692383
12	0.055	506.390045166016	424.914154052734	313.429168701172	1015.23638916016	225.401336669922	83.4395599365234
13	0.06	510.012237548828	424.854827880859	317.454803466797	1003.13647460938	227.378341674805	83.904052734375
14	0.065	514.328735351562	424.927429199219	321.243041992188	992.727844238281	228.322280883789	85.3117523193359
15	0.07	519.37255859375	424.914337158203	324.711364746094	983.910339355469	229.133758544922	86.8152847290039
16	0.075	525.137756347656	425.031341552734	327.915130615234	975.246459960938	229.776809692383	88.229118347168
17	0.08	531.509033203125	425.002227783203	330.690155029297	965.365844726562	230.511779785156	89.3597412109375
18	0.085	538.453796386719	424.968597412109	333.043029785156	954.372314453125	231.214279174805	90.4811935424805
19	0.09	545.82470703125	425.041229248047	335.027099609375	943.239196777344	231.543502807617	91.1976165771484
20	0.095	553.649536132812	425.028747558594	336.601257324219	932.157409667969	231.711135864258	91.4160461425781
21	0.1	561.717163085938	425.205200195312	337.720062255859	920.868225097656	231.752960205078	91.6394882202148
22	0.105	570.041015625	425.418151855469	338.402465820312	909.057922363281	231.725631713867	91.9164886474609
23	0.11	578.558288574219	425.735260009766	338.614807128906	897.32275390625	231.894866943359	91.8823928833008
24	0.115	587.205078125	426.126586914062	338.390075683594	885.305541992188	232.097518920898	91.9937210083008
25	0.12	595.949157714844	426.53271484375	337.669647216797	873.199890136719	232.377792358398	92.1713409423828
26	0.125	604.778381347656	427.058715820312	336.555206298828	860.90625	232.642868041992	92.459587097168
27	0.13	613.728759765625	427.586517333984	334.951171875	848.622802734375	232.792633056641	92.7600860595703
28	0.135	622.815124511719	428.122680664062	332.830596923828	836.635192871094	233.104080200195	92.8863372802734
29	0.14	631.856628417969	428.640441894531	330.270751953125	824.195373535156	233.012405395508	93.3533096313477
30	0.145	641.026000976562	429.182281494141	327.263244628906	811.935729980469	232.80924987793	93.8602828979492
31	0.15	650.204528808594	429.672241210938	323.777954101562	799.701599121094	232.584838867188	94.4939346313477
32	0.155	659.362060546875	430.096405029297	319.938995361328	787.531921386719	232.235778808594	95.2754974365234
33	0.16	668.496032714844	430.555328369141	315.632263183594	775.505615234375	231.738800048828	96.175163269043
34	0.165	677.659606933594	430.815734863281	310.99267578125	763.860778808594	230.816619873047	97.176399230957
35	0.17	686.859619140625	431.130706787109	306.005493164062	751.710876464844	230.395294189453	98.5113983154297
36	0.175	696.155456542969	431.303619384766	300.645751953125	740.051696777344	229.582168579102	99.9853820800781
37	0.18	705.416564941406	431.412780761719	295.031860351562	728.465454101562	228.608428955078	101.832321166992
38	0.185	714.985778808594	431.395904541016	289.103607177734	717.410827636719	227.120330810547	103.984344482422
39	0.19	724.5029296875	431.322387695312	283.021179199219	705.795837402344	226.282028198242	106.757659912109
40	0.195	734.3251953125	430.934020996094	276.417633056641	694.884887695312	225.02409362793	109.618293762207
41	0.2	744.284545898438	430.452697753906	269.745147705078	684.35791015625	223.665313720703	112.883972167969
42	0.205	754.457458496094	429.897918701172	262.794708251953	674.018737792969	222.231872558594	116.389457702637
43	0.21	764.778869628906	429.13427734375	255.667739868164	664.123474121094	220.834289550781	120.209808349609
44	0.215	775.390441894531	428.359619140625	248.348510742188	654.535583496094	219.391571044922	124.230842590332
45	0.22	786.178466796875	427.434509277344	240.84326171875	645.632873535156	218.205947875977	127.920585632324
46	0.225	797.212829589844	426.439514160156	233.241928100586	636.840454101562	216.736114501953	132.275177001953
47	0.23	808.510070800781	425.374664306641	225.505065917969	628.439819335938	215.169799804688	136.809158325195
48	0.235	820.025634765625	424.282318115234	217.731643676758	620.3134765625	213.659652709961	141.361038208008
49	0.24	831.728271484375	423.059509277344	209.867599487305	612.432922363281	212.000930786133	146.060333251953
50	0.245	843.706481933594	421.858642578125	202.041244506836	605.074523925781	210.481323242188	150.742813110352
51	0.25	855.808349609375	420.698455810547	194.30908203125	598.018920898438	208.790328979492	155.538955688477
52	0.255	867.82177734375	419.700744628906	186.733627319336	591.328308105469	207.211975097656	160.454544067383
53	0.26	880.691162109375	418.353485107422	179.152236938477	584.830322265625	205.537734985352	165.357986450195
54	0.265	893.330078125	417.173858642578	171.964920043945	578.721557617188	203.925399780273	170.278305053711
55	0.27	906.362182617188	415.769866943359	164.957794189453	572.881713867188	202.317642211914	175.156387329102
56	0.275	919.236267089844	414.680938720703	158.490463256836	567.365600585938	200.876113891602	180.143997192383
57	0.28	932.049926757812	413.430419921875	152.359756469727	562.02490234375	199.755737304688	185.049118041992
58	0.285	944.686279296875	412.180297851562	146.727279663086	556.907653808594	198.567825317383	189.977905273438
59	0.29	956.888366699219	410.951263427734	141.537902832031	551.897644042969	197.620956420898	194.902603149414
60	0.295	968.634216308594	409.6611328125	136.865310668945	547.045959472656	196.90788269043	199.651153564453
61	0.3	979.643737792969	408.389495849609	132.654968261719	542.048889160156	196.25212097168	204.496429443359
62	0.305	989.978759765625	407.064086914062	128.883728027344	536.918395996094	195.545227050781	209.465606689453
63	0.31	999.413391113281	405.663330078125	125.476928710938	531.668579101562	195.107574462891	214.308197021484
64	0.315	1007.94110107422	404.319274902344	122.637199401855	526.168273925781	194.776397705078	219.34211730957
65	0.32	1015.46936035156	402.938507080078	120.159042358398	520.347412109375	194.583404541016	224.573989868164
66	0.325	1022.07452392578	401.479309082031	117.993087768555	514.484924316406	194.452438354492	229.967910766602
67	0.33	1027.7998046875	399.942077636719	116.013114929199	508.787963867188	194.797103881836	235.457901000977
68	0.335	1032.45373535156	398.383972167969	114.174629211426	503.551361083984	194.917266845703	241.094543457031
69	0.34	1036.09045410156	396.786895751953	112.360252380371	498.690002441406	195.126770019531	246.79460144043
70	0.345	1038.74597167969	395.048126220703	110.446632385254	494.429077148438	195.307723999023	252.511291503906
71	0.35	1040.49841308594	393.443542480469	108.441528320312	490.696685791016	195.426620483398	258.276245117188
72	0.355	1041.41589355469	391.936340332031	106.272895812988	487.595184326172	195.391647338867	264.021820068359
73	0.36	1041.43518066406	390.628540039062	104.067352294922	485.086975097656	195.216506958008	269.682861328125
74	0.365	1040.73742675781	389.456390380859	101.627220153809	483.207061767578	194.922607421875	275.241790771484
75	0.37	1039.33093261719	388.401580810547	98.8554306030273	481.927520751953	194.401443481445	280.738250732422
76	0.375	1037.08801269531	387.485778808594	96.1280212402344	481.214111328125	193.884384155273	286.037322998047
77	0.38	1033.56091308594	386.13330078125	94.3076248168945	481.090362548828	193.224533081055	291.175109863281
78	0.385	1028.44299316406	383.789031982422	92.7377471923828	481.592864990234	192.412445068359	296.146759033203
79	0.39	1018.90014648438	380.576416015625	91.2461700439453	482.878570556641	191.834365844727	300.699310302734
80	0.395	1005.171875	377.207794189453	90.0805358886719	484.778289794922	190.992401123047	305.112854003906
81	0.4	992.070861816406	375.070007324219	89.5289306640625	487.496215820312	190.277145385742	309.286804199219
82	0.405	980.513671875	373.796966552734	89.3740539550781	490.972747802734	189.453979492188	313.202575683594
83	0.41	970.086364746094	372.634552001953	90.077766418457	495.242767333984	188.761245727539	316.808868408203
84	0.415	959.899108886719	371.756744384766	90.986686706543	500.266296386719	188.109451293945	320.141784667969
85	0.42	948.870544433594	370.877593994141	92.137451171875	505.978149414062	187.556350708008	323.146789550781
86	0.425	937.316101074219	370.445098876953	93.3598327636719	512.260925292969	187.150161743164	325.770080566406
87	0.43	925.611999511719	370.422760009766	94.1961364746094	519.073425292969	186.71875	328.040588378906
88	0.435	914.409606933594	370.930755615234	94.9065246582031	526.374633789062	186.509948730469	329.836456298828
89	0.44	903.175048828125	371.819702148438	95.6746368408203	534.104919433594	186.328338623047	331.210052490234
90	0.445	891.816223144531	372.838409423828	96.2973098754883	542.20458984375	186.217803955078	332.007171630859
91	0.45	880.404174804688	373.706298828125	96.5929565429688	550.490539550781	186.053100585938	332.336364746094
